<svg version="1.2" id="Layer_1" xmlns="http://www.w3.org/2000/svg" xmlns:xlink="http://www.w3.org/1999/xlink" x="0px" y="0px"
	 width="100%" viewBox="0 0 992 992" xml:space="preserve">
<path fill="#000000" opacity="1.000000" stroke="none" 
	d="
M773.086670,502.886047 
	C784.240295,502.895386 794.907471,502.820862 805.571838,502.962250 
	C808.788147,503.004913 811.222534,502.079468 813.580994,499.818787 
	C834.873413,479.409271 856.191528,459.024902 877.700928,438.845123 
	C881.439941,435.337219 883.040283,431.749512 882.771301,426.647461 
	C882.179077,415.414642 885.731140,405.530518 894.376526,398.068115 
	C905.406799,388.547119 918.115723,386.772675 931.216492,392.605286 
	C944.186340,398.379578 951.292175,408.939545 951.303406,423.358917 
	C951.387390,531.353333 951.357544,639.347717 951.338318,747.342163 
	C951.334961,766.128662 936.654480,781.283691 918.169128,781.720520 
	C899.146301,782.169983 882.812866,767.410889 882.997803,748.414673 
	C883.081665,739.809448 880.095703,734.307373 874.111755,728.758850 
	C853.951965,710.066467 834.177246,690.957458 814.353577,671.905518 
	C811.651123,669.308228 808.898254,668.036072 805.078125,668.102173 
	C793.415649,668.303955 781.744934,668.302673 770.082520,668.095764 
	C765.807678,668.019958 764.196045,669.364319 764.254761,673.815186 
	C764.465820,689.811523 764.337097,705.812439 764.335754,721.811584 
	C764.334839,732.194092 760.261963,736.302002 749.810120,736.303467 
	C669.147583,736.314758 588.485107,736.307739 507.822601,736.307129 
	C505.989380,736.307129 504.151367,736.401611 502.324036,736.300171 
	C499.449707,736.140686 497.970093,737.207947 498.002533,740.288696 
	C498.079681,747.620422 498.090698,754.954712 497.979004,762.285706 
	C497.932495,765.338745 499.766846,767.147156 501.667358,769.046631 
	C539.150391,806.508301 576.626038,843.977356 614.102661,881.445435 
	C622.116638,889.457581 630.206177,897.396606 638.095642,905.529541 
	C640.505066,908.013428 643.062134,908.958435 646.480469,908.942749 
	C668.978821,908.839417 691.477966,908.886230 713.976685,908.933105 
	C716.295044,908.937927 718.664551,909.018188 720.920654,909.491028 
	C726.697327,910.701660 730.648132,915.877014 730.239441,921.348389 
	C729.795898,927.285034 725.177490,931.877441 719.182312,932.280090 
	C717.688538,932.380432 716.183594,932.323120 714.683777,932.323120 
	C498.694946,932.327087 282.706116,932.329773 66.717293,932.330688 
	C64.884186,932.330688 63.043819,932.405884 61.219357,932.273438 
	C55.813698,931.881226 51.334671,927.704773 50.716808,922.585083 
	C49.959396,916.308960 52.848637,911.565369 58.541359,909.714294 
	C61.290157,908.820557 64.126518,908.901794 66.960159,908.901917 
	C120.290733,908.904846 173.621460,908.850281 226.951645,908.995483 
	C231.836700,909.008789 235.331818,907.579590 238.793167,904.103210 
	C283.473602,859.229248 328.267059,814.467651 373.125732,769.771790 
	C376.299591,766.609375 378.018677,763.432739 377.741821,758.835266 
	C377.381836,752.857117 377.499756,746.835876 377.707397,740.843445 
	C377.830627,737.286621 376.399353,735.982056 373.001801,736.290466 
	C371.514252,736.425415 370.004028,736.309998 368.504120,736.309998 
	C287.841614,736.309753 207.179138,736.311218 126.516640,736.307739 
	C114.570671,736.307190 110.752571,732.440247 110.753273,720.375916 
	C110.754189,704.543396 110.656487,688.709656 110.837700,672.879211 
	C110.883011,668.921753 109.789658,667.143188 105.678307,665.991516 
	C74.688332,657.310974 55.661705,636.989014 51.330250,605.143494 
	C49.246731,589.825134 48.733368,573.813904 52.584389,558.424133 
	C59.660683,530.145203 78.027176,512.699158 105.884789,505.183411 
	C109.872749,504.107513 110.516838,502.431183 110.879761,498.783539 
	C111.765831,489.877747 108.825912,483.534943 102.379204,476.924652 
	C77.363274,451.274048 63.169704,420.182007 59.593800,384.453552 
	C52.969948,318.271698 86.262909,256.238098 145.961426,226.874603 
	C198.880310,200.845718 251.591721,203.640518 301.680237,234.774658 
	C341.252045,259.371796 364.711060,295.820526 373.025146,341.621063 
	C378.418427,371.331421 374.675690,400.289276 363.483978,428.310364 
	C362.770721,430.096069 361.431610,431.774292 362.024567,434.340881 
	C384.188751,434.340881 406.367859,434.340881 428.660980,434.340881 
	C428.511810,431.931549 426.890137,430.579346 425.799194,429.000183 
	C407.179443,402.048248 394.215607,372.666138 388.535706,340.343628 
	C376.717804,273.092010 391.031799,211.838104 432.881256,157.810928 
	C470.271759,109.540207 519.878357,80.844269 580.230713,71.952408 
	C696.252869,54.858555 806.783081,128.882263 834.470642,243.255066 
	C852.904602,319.402985 835.562256,388.025177 784.989807,448.075378 
	C779.715637,454.338043 773.950012,460.120605 767.937988,465.637115 
	C765.222717,468.128571 764.157471,470.768707 764.273926,474.387573 
	C764.493591,481.213562 764.335327,488.051483 764.344543,494.884460 
	C764.355347,502.857147 764.360168,502.857147 773.086670,502.886047 
M438.500000,712.845032 
	C536.992920,712.846863 635.485901,712.848206 733.978821,712.851440 
	C740.984741,712.851685 741.051453,712.856079 741.049683,706.027161 
	C741.031433,635.366089 740.995300,564.705017 740.928345,494.044006 
	C740.926697,492.307983 741.502319,490.362213 739.832581,488.790436 
	C736.769714,489.322205 734.542297,491.459229 732.028748,492.967773 
	C682.582825,522.643188 629.350647,532.720703 572.619812,522.889343 
	C527.044495,514.991272 487.611664,494.518585 454.437225,462.236969 
	C451.422882,459.303711 448.408325,458.185638 444.289398,458.205902 
	C415.292084,458.348480 386.288971,458.575928 357.299042,458.094757 
	C349.777466,457.969879 345.445038,460.522522 340.835999,466.292603 
	C311.986145,502.409882 274.162354,522.479492 228.146835,526.073730 
	C196.315598,528.560181 166.267685,521.441345 138.376663,505.677551 
	C137.288193,505.062317 136.320923,503.873322 134.307129,504.610443 
	C134.307129,506.257477 134.307236,508.054993 134.307129,509.852539 
	C134.303284,575.181335 134.299713,640.510071 134.295197,705.838867 
	C134.294724,712.827881 134.292175,712.833923 141.520599,712.834229 
	C240.180405,712.838745 338.840210,712.841431 438.500000,712.845032 
M755.630371,445.141418 
	C767.151550,433.947327 777.311707,421.639435 785.883301,408.043884 
	C813.703491,363.917908 823.463623,315.887268 815.231689,264.586456 
	C807.774353,218.112732 786.370972,178.538361 751.373413,146.995178 
	C702.320557,102.783913 644.513611,85.597572 579.434631,95.852470 
	C528.008667,103.955978 485.569885,129.167358 453.083984,169.924942 
	C415.100769,217.579620 401.162109,272.138153 410.830719,332.124176 
	C418.582367,380.216888 441.373932,420.747620 478.363159,452.495087 
	C529.068420,496.014893 587.819214,511.367310 653.435913,498.887970 
	C692.565735,491.446014 726.372192,473.184937 755.630371,445.141418 
M324.142578,286.344635 
	C290.651062,245.283630 247.676559,227.319138 195.128403,235.292053 
	C125.530754,245.851852 71.946220,311.741608 83.620758,389.019165 
	C95.050392,464.675751 167.983093,515.325012 243.146667,500.543457 
	C301.542664,489.059326 346.429382,440.232910 351.448853,378.823273 
	C354.208435,345.061829 345.072662,314.177063 324.142578,286.344635 
M449.330109,890.499023 
	C449.330933,894.829285 449.543945,899.172913 449.271149,903.485840 
	C449.013092,907.565186 450.409973,908.985718 454.625183,908.975159 
	C503.922241,908.851868 553.219727,908.898010 602.517090,908.861816 
	C603.902283,908.860779 605.519226,909.465149 606.884827,907.713501 
	C605.184998,905.917542 603.529602,904.083862 601.785645,902.338623 
	C564.232971,864.757568 526.565613,827.289917 489.227905,789.496582 
	C483.893860,784.097473 478.675049,780.997620 470.979095,781.869629 
	C466.047455,782.428406 460.998718,781.950867 456.002472,781.942688 
	C449.349518,781.931763 449.322968,781.944458 449.322479,788.572998 
	C449.320007,822.215149 449.326416,855.857239 449.330109,890.499023 
M286.501038,908.901978 
	C330.497437,908.904663 374.493835,908.909485 418.490234,908.907776 
	C425.796295,908.907532 425.800385,908.894287 425.801575,901.406494 
	C425.802979,892.740540 425.790344,884.074646 425.794250,875.408691 
	C425.807404,846.244568 425.740051,817.079834 425.928772,787.916809 
	C425.958679,783.292542 424.424225,781.723267 419.891754,781.909058 
	C413.237061,782.181763 406.550995,782.204529 399.900421,781.880127 
	C395.500000,781.665405 392.444031,783.260132 389.397034,786.321289 
	C350.012207,825.889404 310.514526,865.345154 271.076080,904.859924 
	C270.101349,905.836548 268.487427,906.485535 268.636169,908.899963 
	C274.274933,908.899963 279.888428,908.899963 286.501038,908.901978 
M882.697388,504.500031 
	C882.503967,492.352539 883.143738,480.178589 882.258362,467.379333 
	C880.909729,468.303741 880.312256,468.605225 879.848267,469.046906 
	C862.830261,485.247223 845.843445,501.480469 828.792114,517.645630 
	C826.767212,519.565308 826.301147,521.762207 826.303955,524.382690 
	C826.348145,565.382080 826.362122,606.381531 826.307434,647.380859 
	C826.303772,650.097107 827.141479,652.024841 829.136292,653.909485 
	C845.368103,669.244446 861.485901,684.700012 877.684692,700.069946 
	C878.917908,701.240112 879.845032,703.105225 882.695923,702.844055 
	C882.695923,637.042358 882.695923,571.271179 882.697388,504.500031 
M906.177063,442.500061 
	C906.180054,542.495728 906.181702,642.491455 906.194275,742.487122 
	C906.194580,744.818481 906.100525,747.180847 906.427917,749.474854 
	C907.130981,754.401550 911.917480,758.437805 916.918762,758.589172 
	C921.452454,758.726379 926.487549,755.244263 927.502686,750.909424 
	C928.026978,748.670410 928.053284,746.281006 928.057678,743.959106 
	C928.105896,718.472473 928.119263,692.985718 928.115234,667.499023 
	C928.108398,623.500977 928.081909,579.502869 928.064941,535.504822 
	C928.050659,498.506622 928.077515,461.508301 927.990234,424.510284 
	C927.973694,417.488861 923.345703,412.675690 917.136353,412.653870 
	C910.874512,412.631866 906.383362,417.435516 906.240601,424.501526 
	C906.126221,430.165863 906.191467,435.833832 906.177063,442.500061 
M773.604553,644.682251 
	C781.768005,644.683105 789.933350,644.584595 798.094116,644.733215 
	C801.411621,644.793640 802.941467,643.799988 802.935059,640.221069 
	C802.870300,603.902344 802.884155,567.583313 802.958618,531.264587 
	C802.966187,527.582397 801.467407,526.276001 797.862427,526.338013 
	C789.035156,526.489746 780.203613,526.383240 771.373779,526.393433 
	C764.360779,526.401489 764.343994,526.409912 764.342896,533.222961 
	C764.337280,568.209106 764.341064,603.195312 764.341919,638.181458 
	C764.341919,638.847839 764.391602,639.517639 764.342102,640.180115 
	C764.109863,643.287537 765.335388,644.935791 768.648071,644.687866 
	C769.973145,644.588684 771.312378,644.677490 773.604553,644.682251 
M95.248184,636.252502 
	C98.107178,638.297485 101.194580,639.910889 104.459557,641.208069 
	C110.269722,643.516418 110.728111,643.253113 110.729713,637.148071 
	C110.738777,602.681030 110.739861,568.213989 110.696655,533.747009 
	C110.694504,532.030579 111.411865,530.040649 109.138283,528.360596 
	C91.836372,533.834900 80.322746,545.251831 75.457367,562.988403 
	C72.598351,573.410889 74.342583,584.190796 74.036758,594.807678 
	C73.537308,612.145996 80.909851,625.616455 95.248184,636.252502 
M421.500305,758.655945 
	C437.476288,758.656128 453.453094,758.568298 469.427612,758.720764 
	C473.241516,758.757080 474.946350,757.646423 474.706848,753.620300 
	C474.450348,749.308594 474.523895,744.965637 474.682922,740.644714 
	C474.804047,737.353027 473.348145,736.278015 470.210876,736.287659 
	C448.576965,736.354309 426.942688,736.351807 405.308746,736.289429 
	C402.367493,736.280945 401.028290,737.349609 401.094818,740.364441 
	C401.201263,745.188110 401.194580,750.016724 401.116852,754.841309 
	C401.072235,757.611328 402.275879,758.711121 405.024597,758.658997 
	C410.181458,758.561035 415.341766,758.646301 421.500305,758.655945 
z"/>
<path fill="#000000" opacity="1.000000" stroke="none" 
	d="
M778.575073,932.195312 
	C771.673035,929.819824 768.015930,924.692505 768.888123,919.176147 
	C769.829895,913.219055 774.445923,909.069092 781.265015,909.009094 
	C801.385254,908.831787 821.509338,908.808655 841.629089,909.008850 
	C849.152954,909.083618 854.436890,914.563782 854.187866,921.108093 
	C853.938660,927.658447 848.775391,932.285583 841.372559,932.298340 
	C820.585938,932.334167 799.799133,932.270630 778.575073,932.195312 
z"/>
<path fill="#000000" opacity="1.000000" stroke="none" 
	d="
M949.523193,927.164307 
	C946.521851,931.058411 942.878479,932.421082 938.385742,932.366516 
	C927.408691,932.232910 916.428650,932.364441 905.450256,932.305481 
	C897.998230,932.265442 893.021606,927.825806 892.725952,921.131897 
	C892.437683,914.606689 897.322571,909.253967 904.655701,909.059814 
	C916.290527,908.751709 927.954773,908.623230 939.578308,909.103333 
	C949.530090,909.514465 953.850891,917.546448 949.523193,927.164307 
z"/>
<path fill="#000000" opacity="1.000000" stroke="none" 
	d="
M15.724598,980.664551 
	C15.453650,975.560974 20.296331,976.945679 22.595142,974.550781 
	C20.770454,972.455750 20.199839,969.358337 17.338791,967.925354 
	C16.175135,967.342590 14.652328,967.113037 14.887267,965.295349 
	C15.108721,963.581909 16.598444,963.493530 17.846952,963.101929 
	C18.615845,962.860779 19.365162,962.557251 20.340569,962.202698 
	C19.793087,958.871948 18.298433,955.615173 21.423569,952.502502 
	C19.343010,952.077332 18.213602,951.872986 17.097858,951.610535 
	C16.119370,951.380493 15.149099,951.104980 14.892858,949.907349 
	C14.585760,948.472107 15.526877,947.912292 16.532341,947.190063 
	C19.952173,944.733459 22.377983,941.994507 19.869436,937.323792 
	C18.925196,935.565735 19.221649,933.420715 21.148298,931.943481 
	C23.735485,929.959961 26.298084,931.105713 28.688923,932.140198 
	C30.775003,933.042847 30.307829,935.214050 30.169748,937.003967 
	C30.033464,938.770508 28.815241,939.972778 27.507414,940.974976 
	C31.552032,947.001038 31.452394,949.749817 27.051451,952.081665 
	C30.218754,954.247314 30.845091,956.897949 29.941885,960.696411 
	C28.947683,964.877625 30.937120,969.283081 30.223730,973.646912 
	C30.122297,974.267456 30.666023,975.286499 30.385630,975.540344 
	C26.913221,978.682251 26.920866,981.920349 30.347338,985.685852 
	C24.844509,985.021118 19.926434,984.319885 15.724598,980.664551 
z"/>
<path fill="#000000" opacity="1.000000" stroke="none" 
	d="
M30.189987,887.407959 
	C29.219837,895.137451 29.470940,902.542358 29.954617,909.941956 
	C30.200392,913.701843 28.269190,917.434387 30.187309,921.281616 
	C30.797001,922.504517 30.755350,925.045105 28.524609,925.302856 
	C25.815611,925.616028 27.232151,922.815369 26.295376,921.459167 
	C25.910828,921.687744 25.449400,921.825378 25.196543,922.133911 
	C23.253834,924.504639 21.158051,927.297302 17.811516,925.044128 
	C14.759369,922.989197 15.058075,919.834106 16.539270,916.625000 
	C19.041370,911.203979 20.102846,905.252808 20.977085,899.488464 
	C21.427097,896.521301 20.670856,892.316223 17.788628,889.739685 
	C16.804848,888.860229 14.487185,889.214172 15.022192,887.014099 
	C15.471979,885.164551 17.338797,885.482971 18.752403,885.234192 
	C19.237810,885.148743 19.742123,885.170715 20.352089,885.137390 
	C21.024904,883.619080 18.651634,882.101013 20.604559,880.374695 
	C23.591091,883.401367 26.579163,881.265442 29.419027,879.788147 
	C32.097050,882.180054 26.544575,884.977722 30.189987,887.407959 
M23.303549,893.256104 
	C24.367710,895.117371 25.302464,894.580872 26.031002,893.035461 
	C26.425705,892.198242 27.067003,891.292969 26.266624,890.263977 
	C24.965435,889.968384 23.641329,889.285400 22.297474,890.184814 
	C22.630852,891.160583 22.892654,891.926880 23.303549,893.256104 
z"/>
<path fill="#000000" opacity="1.000000" stroke="none" 
	d="
M19.556074,855.193298 
	C16.305061,853.898071 15.954826,851.204102 17.131973,848.604004 
	C19.145618,844.156250 22.888115,846.016785 26.127365,846.962341 
	C27.413277,845.041443 26.642752,843.247192 26.545435,840.749268 
	C24.469517,843.003235 21.007290,840.439941 19.557194,844.057312 
	C19.230532,844.872253 17.735102,844.134216 17.131357,843.217834 
	C15.196652,840.281067 17.371857,835.978455 20.941177,836.059448 
	C22.481325,836.094299 23.897936,835.851257 25.347292,835.581726 
	C28.028843,835.083069 29.879015,836.391052 30.023645,838.806519 
	C30.335884,844.021240 30.119684,849.267517 30.119684,854.330505 
	C27.081961,855.263428 26.495640,853.013977 25.200951,851.916931 
	C22.230324,849.399475 20.410212,849.704895 20.108900,854.470459 
	C19.924097,854.950317 19.556074,855.193298 19.556074,855.193298 
z"/>
<path fill="#000000" opacity="1.000000" stroke="none" 
	d="
M20.505371,791.515259 
	C22.826965,789.798584 24.854910,787.384460 28.006294,789.202454 
	C30.786808,790.806396 30.512814,793.637390 30.068144,796.318848 
	C29.453899,800.022766 31.454481,803.827454 29.579121,807.639648 
	C25.656065,808.117981 25.367060,802.499329 21.445215,802.871765 
	C19.323606,803.513367 21.079546,806.358032 19.009882,807.440369 
	C15.608598,806.154785 16.014032,803.079041 17.356823,801.097229 
	C20.001371,797.194153 23.587339,798.416992 26.805887,800.881165 
	C27.841005,799.492493 27.739498,798.232239 27.109083,797.009094 
	C26.504026,795.835205 27.377975,794.312500 25.798964,792.962952 
	C24.599232,795.996216 23.274921,798.798767 19.159124,796.762146 
	C15.316335,794.860596 16.790005,792.057007 17.000607,789.359802 
	C19.159050,788.815063 19.438984,790.477478 20.505371,791.515259 
z"/>
<path fill="#000000" opacity="1.000000" stroke="none" 
	d="
M27.541454,820.141602 
	C29.116920,820.592529 30.280252,821.028931 29.992151,822.556030 
	C29.774220,823.711121 28.784685,824.071533 27.737534,824.148376 
	C26.576025,824.233582 25.406092,824.202209 24.244072,824.282837 
	C23.133598,824.359863 21.847414,824.011169 21.079645,825.557007 
	C23.177303,828.934753 29.431005,827.805359 30.351698,833.424683 
	C26.464779,833.991150 24.229767,830.665100 21.244925,830.800354 
	C19.427666,831.735229 20.341043,834.208374 17.537577,835.264343 
	C15.416533,830.961975 15.984557,826.024170 17.269760,822.260315 
	C18.628660,818.280457 23.664122,820.462097 27.541454,820.141602 
z"/>
<path fill="#000000" opacity="1.000000" stroke="none" 
	d="
M16.758904,813.064453 
	C17.728899,808.404175 20.956722,808.379333 24.223331,808.783691 
	C27.628983,809.205139 29.338692,811.706787 29.749596,816.370850 
	C18.923471,819.910400 18.259785,819.763306 16.758904,813.064453 
z"/>
<path fill="#000000" opacity="1.000000" stroke="none" 
	d="
M21.508358,777.430786 
	C18.287537,776.477112 16.298105,774.809204 16.871437,771.577637 
	C17.349976,768.880188 19.496103,767.865601 22.025896,767.729187 
	C25.060431,767.565552 28.352062,767.365234 29.841850,770.721069 
	C31.151564,773.671326 29.777458,776.015381 26.820858,777.031311 
	C25.302938,777.552856 23.540787,777.363586 21.508358,777.430786 
M21.058023,771.909851 
	C23.018112,774.432495 23.018112,774.432495 25.987362,772.172913 
	C24.683619,770.640808 23.085268,771.263184 21.058023,771.909851 
z"/>
<path fill="#000000" opacity="1.000000" stroke="none" 
	d="
M20.104160,854.822998 
	C21.501442,855.097229 22.691610,855.683167 23.940840,855.866394 
	C28.049000,856.468933 30.011709,858.593140 29.173582,862.949280 
	C26.642448,865.539856 23.517340,864.315430 20.749077,863.504761 
	C17.316765,862.499573 16.596626,858.112732 19.336559,855.340088 
	C19.556074,855.193298 19.924097,854.950317 20.104160,854.822998 
z"/>
<path fill="#000000" opacity="1.000000" stroke="none" 
	d="
M23.794746,778.990662 
	C26.914375,778.374573 29.354416,778.858948 30.042368,781.882935 
	C30.505621,783.919312 31.188583,786.524170 28.201628,787.456055 
	C26.078854,786.539062 27.405685,784.557434 26.187593,783.110107 
	C24.643272,783.349365 22.953529,788.220947 21.139921,783.465820 
	C19.316654,784.070374 20.990023,787.194458 18.434769,786.952759 
	C16.911604,786.808594 16.823761,785.485474 16.746677,784.333984 
	C16.609337,782.282349 16.697277,780.147888 19.038570,779.400391 
	C20.390194,778.968872 21.946051,779.177002 23.794746,778.990662 
z"/>
<path fill="#000000" opacity="1.000000" stroke="none" 
	d="
M18.347185,870.868958 
	C23.853891,871.186523 29.063232,870.082153 34.710678,871.872131 
	C30.769238,875.102661 17.949593,875.172607 14.290170,872.656189 
	C14.819528,870.709229 16.481627,871.045410 18.347185,870.868958 
z"/>
<path fill="#000000" opacity="1.000000" stroke="none" 
	d="
M718.318970,667.639771 
	C716.985657,675.823914 713.172668,679.283020 705.591614,679.315186 
	C690.597900,679.378662 675.603699,679.369385 660.609924,679.316528 
	C652.812866,679.289062 647.793457,674.715027 647.708435,667.757324 
	C647.628052,661.171204 652.526978,656.220825 660.033569,656.010620 
	C669.689026,655.740234 679.362488,655.723022 689.017334,655.990723 
	C693.673889,656.119873 695.014587,654.381714 694.994080,649.893311 
	C694.851013,618.573303 694.904419,587.252319 694.940430,555.931641 
	C694.943298,553.449158 695.038330,550.915955 695.528137,548.494873 
	C696.707214,542.667297 701.734314,538.850647 707.388611,539.198181 
	C713.132324,539.551208 717.641479,543.881531 718.239807,549.734375 
	C718.408508,551.384827 718.321716,553.063171 718.321899,554.728760 
	C718.326599,592.213623 718.326965,629.698486 718.318970,667.639771 
z"/>
<path fill="#000000" opacity="1.000000" stroke="none" 
	d="
M444.000000,655.951599 
	C457.666443,655.941223 470.833801,655.832214 483.998962,655.957458 
	C492.313080,656.036499 497.050598,660.047302 497.526245,666.922058 
	C498.031250,674.221619 493.094879,679.294922 485.152740,679.314819 
	C460.653290,679.376160 436.153625,679.336914 411.654022,679.337341 
	C389.654388,679.337708 367.654755,679.350708 345.655121,679.333679 
	C336.961456,679.326965 331.840515,675.058411 331.714508,667.801514 
	C331.591827,660.735779 336.946167,655.962891 345.501556,655.947571 
	C378.167603,655.888916 410.833832,655.941162 444.000000,655.951599 
z"/>
<path fill="#000000" opacity="1.000000" stroke="none" 
	d="
M155.235107,651.417358 
	C164.356262,637.303101 178.900986,631.572144 193.746292,636.001160 
	C207.634354,640.144592 217.301743,653.236206 217.284866,667.877319 
	C217.264465,685.571106 203.540146,700.255676 185.125610,700.929993 
	C167.187729,701.586731 154.012131,688.505127 151.499847,673.422852 
	C150.205063,665.649597 151.473907,658.574829 155.235107,651.417358 
M189.880539,675.455383 
	C193.299759,672.630005 194.539047,668.988525 193.324432,664.782593 
	C192.337997,661.366821 189.886292,659.083618 186.335800,658.409973 
	C181.866425,657.561890 178.038681,658.713806 175.704636,662.913940 
	C173.429016,667.009033 173.879562,671.006714 177.123764,674.352600 
	C180.660736,678.000366 184.806824,678.689575 189.880539,675.455383 
z"/>
<path fill="#000000" opacity="1.000000" stroke="none" 
	d="
M268.997620,655.942871 
	C273.986969,655.949097 278.485840,655.777771 282.965027,656.001343 
	C290.914276,656.398315 295.462616,660.935303 295.337982,668.016541 
	C295.216431,674.923645 290.260773,679.294983 282.372345,679.327515 
	C271.895538,679.370789 261.418152,679.388611 250.941635,679.319702 
	C243.254913,679.269165 238.113617,674.508545 238.147598,667.665222 
	C238.180008,661.139282 243.262634,656.195251 250.539124,655.967529 
	C256.519897,655.780273 262.511475,655.938171 268.997620,655.942871 
z"/>
<path fill="#000000" opacity="1.000000" stroke="none" 
	d="
M699.271484,434.359894 
	C669.534119,452.976196 637.364868,461.591858 602.835388,459.047424 
	C549.851685,455.143158 508.136322,430.708954 478.349396,386.716248 
	C458.059296,356.749542 449.432312,323.192108 451.899506,287.213959 
	C457.023041,212.500153 511.166779,155.444595 577.822205,140.547745 
	C665.466187,120.960091 753.656006,177.883591 771.121033,265.547058 
	C784.126648,330.827301 757.144104,395.771973 701.647644,432.765686 
	C700.954651,433.227600 700.268555,433.699799 699.271484,434.359894 
M482.472961,343.097870 
	C504.580292,406.399811 569.256775,446.395782 638.783997,433.651093 
	C711.843811,420.258820 762.391296,347.380463 748.882202,274.609406 
	C734.735107,198.401749 664.840576,149.265594 588.947815,162.174820 
	C506.191528,176.251511 454.810089,263.011627 482.472961,343.097870 
z"/>
<path fill="#000000" opacity="1.000000" stroke="none" 
	d="
M126.734161,367.041199 
	C127.906906,321.884369 160.477875,285.318390 204.854874,278.863251 
	C252.954239,271.866638 299.860504,307.305054 306.182648,355.417908 
	C312.590149,404.180603 280.869476,447.852173 232.411163,456.983124 
	C182.287231,466.427917 132.817078,429.347656 127.544250,378.454468 
	C127.166710,374.810394 126.622765,371.194885 126.734161,367.041199 
M152.312744,351.815765 
	C150.125931,360.978821 149.785614,370.138580 151.247818,379.515839 
	C156.530167,413.392426 190.435638,438.984955 224.529709,434.573303 
	C262.323120,429.682922 288.238159,395.585480 282.748505,357.972473 
	C277.338135,320.902740 240.637955,295.040771 204.126938,302.881592 
	C177.455215,308.609375 160.517868,325.121155 152.312744,351.815765 
z"/>
<path fill="#000000" opacity="1.000000" stroke="none" 
	d="
M660.309814,222.698944 
	C646.082825,213.954803 631.033508,209.321625 614.623352,209.143814 
	C607.178162,209.063141 602.357117,205.185822 601.675354,199.220749 
	C600.763123,191.238159 605.592712,185.703018 613.831360,185.720963 
	C634.281799,185.765503 653.446472,190.947464 670.742432,201.794312 
	C705.448303,223.559418 723.721863,255.108246 725.281372,296.120239 
	C725.588928,304.208038 721.170959,309.191406 714.304688,309.400909 
	C706.723877,309.632172 702.136841,304.914459 701.849915,296.394653 
	C700.785095,264.770294 686.866638,240.379181 660.309814,222.698944 
z"/>
<path fill="#000000" opacity="1.000000" stroke="none" 
	d="
M212.827087,338.784790 
	C206.072647,334.692963 203.915375,329.587524 206.107452,323.600372 
	C208.059509,318.268829 213.667343,315.407990 220.440247,316.288483 
	C245.764832,319.580658 262.624847,334.119415 267.712738,357.395172 
	C268.689819,361.864990 269.920258,366.458405 268.496826,371.170105 
	C266.857544,376.596344 261.983490,380.238403 256.583008,379.883911 
	C251.303802,379.537354 246.841385,375.566986 245.822647,370.309998 
	C241.267303,346.802887 236.257080,341.986511 212.827087,338.784790 
z"/>
</svg>